<svg width="456" height="636" viewBox="0 0 456 636" fill="none" xmlns="http://www.w3.org/2000/svg">
<g filter="url(#filter0_dd)">
<g clip-path="url(#clip0)">
<rect x="16" y="16" width="416" height="596" rx="10" fill="white"/>
<g clip-path="url(#clip1)">
<path d="M370.29 38.8946C360.025 35.6305 355.172 30.9708 342.233 22.9866C340.074 21.655 338.883 19.136 339.226 16.5684C342.305 -6.39365 347.812 -24.8454 352.155 -36.6625C355.647 -46.1654 363.839 -53.014 373.585 -54.7601C387.85 -57.315 401.612 -57.5309 414.434 -56.2897C416.662 -56.0741 418.591 -54.6483 419.54 -52.5745C426.343 -37.7056 434.071 -25.4576 434.829 -8.12502C434.897 -6.56971 436.988 -6.22548 437.528 -7.68366C440.492 -15.6747 445.051 -30.2265 447.322 -48.8204C447.433 -49.7306 448.33 -50.3148 449.172 -50.0143C459.123 -46.4653 473.194 -40.2011 479.912 -36.8209C480.306 -36.6232 480.581 -36.2506 480.658 -35.8082C484.048 -16.5467 487.626 10.8276 485.703 32.9565C485.564 34.5553 487.692 35.1372 488.358 33.6816C493.606 22.2204 502.952 0.605577 507.172 -16.5861C507.437 -17.6635 508.734 -18.0495 509.505 -17.275C512.174 -14.5906 516.73 -9.92118 518.363 -8.25707C518.572 -8.04485 518.707 -7.77388 518.752 -7.47493C521.207 8.88782 522.424 31.7662 515.162 50.7621C514.673 52.0388 516.01 53.2192 517.164 52.5247C523.309 48.8263 535.814 39.9799 541.906 26.2541C542.384 25.178 543.854 25.1064 544.403 26.1399C551.475 39.4496 555.272 52.9676 555.294 69.1516C555.295 69.5974 555.09 70.0156 554.744 70.2874C544.569 78.275 532.101 89.7132 515.885 91.1535C514.382 91.2875 514.088 93.4143 515.507 93.9291C521.827 96.2217 532.325 99.2664 545.881 100.432C546.898 100.519 547.488 101.663 546.97 102.569C542.627 110.158 536.399 117.197 527.884 123.489C518.819 130.978 500.309 130.993 496.322 112.547C495.427 108.426 496.389 100.284 494.576 96.3963C490.574 87.8142 486.214 83.4799 481.634 77.1659C473.446 66.451 459.943 63.4316 451.451 70.4112C442.989 77.4344 442.702 91.848 450.89 102.565C455.801 108.669 458.836 114.019 465.981 120.021C469.213 122.736 477.234 122.465 480.892 124.303C484.083 125.902 486.741 128.207 488.797 130.898C495.155 139.218 491.2 153.795 483.834 159.881C476.208 166.906 468.408 171.567 460.521 174.282C459.425 174.659 458.382 173.59 458.756 172.467C464.594 154.942 463.365 144.124 461.96 138.87C461.602 137.531 459.769 137.476 459.304 138.785C453.287 155.732 445.607 167.304 435.431 176.38C435.095 176.679 434.644 176.794 434.212 176.693C428.937 175.452 417.414 172.636 412.785 170.66C403.881 166.86 395.9 161.167 388.85 154.564C388.011 153.778 388.417 152.353 389.533 152.113C403.622 149.089 414.658 138.619 419.602 133.169C420.546 132.13 419.605 130.474 418.26 130.805C400.12 135.277 387.494 140.248 369.826 134.546C369.507 134.444 369.237 134.226 369.064 133.933C366.854 130.187 353.66 107.978 348.708 99.5453C348.059 98.4404 349.064 97.0922 350.28 97.4274C372.752 103.611 395.939 96.2935 406.216 92.2039C407.608 91.6499 407.31 89.5504 405.824 89.4417C384.899 87.9147 363.133 83.9828 345.288 76.0452C344.881 75.8639 344.586 75.4963 344.49 75.0522C342.841 67.4766 340.151 51.7963 339.077 40.916C338.987 40.0053 339.746 39.2396 340.633 39.3397C353.097 40.7494 362.842 41.4101 369.798 41.6936C371.429 41.7612 371.844 39.3892 370.29 38.8946Z" fill="#4E901E"/>
<path d="M360.476 -48.5791C370.75 -35.1339 440.928 56.7086 451.42 70.4388C451.826 70.1923 454.681 67.5212 459.652 66.8349C459.657 66.831 459.666 66.832 459.675 66.8331C467.807 65.6094 476.359 70.248 481.637 77.169C487.543 84.9966 491.036 88.8184 494.576 96.3986C495.625 98.6345 495.755 103.013 495.744 103.111C496.006 108.542 495.198 114.921 500.715 122.049C507.073 130.367 520.517 129.578 527.884 123.488C534.887 118.317 540.338 112.642 544.468 106.568C545.364 105.253 546.198 103.922 546.97 102.57C547.487 101.664 546.901 100.52 545.884 100.432C544.152 100.285 542.469 100.101 540.843 99.8967C529.712 98.502 521.019 95.9315 515.509 93.9302C514.097 93.4094 514.374 91.3015 515.886 91.1527C522.009 90.6086 527.552 88.6642 532.689 85.9793C540.85 81.7238 547.975 75.6062 554.744 70.2915L554.744 70.287C555.093 70.0147 555.296 69.5993 555.297 69.152C555.281 53.1211 551.482 39.4315 544.401 26.1403C543.857 25.1037 542.385 25.1777 541.908 26.2511C535.812 39.9789 523.309 48.8241 517.166 52.5223C516.01 53.2151 514.673 52.0365 515.164 50.7592C521.933 33.0522 521.567 11.1953 518.755 -7.4723L518.751 -7.47724C518.672 -8.01761 519.193 -7.52941 509.504 -17.2769C508.933 -17.8456 508.043 -17.8171 507.476 -17.1871C506.395 -15.9219 505.352 -4.02115 489.827 30.4473C489.351 31.5025 488.86 32.5841 488.357 33.6825C487.691 35.1353 485.563 34.5516 485.705 32.955C485.886 30.8915 486.014 28.7804 486.101 26.6362C486.963 5.79195 483.732 -18.3462 480.659 -35.8085C480.583 -36.2508 480.307 -36.6225 479.912 -36.8219C471.608 -41.0031 457.504 -47.0318 449.171 -50.0135C448.328 -50.3149 447.435 -49.7317 447.322 -48.8217C445.547 -34.2575 442.082 -20.1255 437.531 -7.68731C437.038 -6.47115 435.651 -6.53659 435.072 -7.35315L435.072 -7.3576C434.378 -8.2617 435.268 -12.2599 432.711 -21.7078C432.711 -21.7122 432.711 -21.7122 432.711 -21.7122C429.613 -32.9954 424.555 -41.6024 419.54 -52.573C418.592 -54.649 416.66 -56.0729 414.436 -56.2899C399.333 -57.7989 382.461 -56.7125 373.508 -54.7437C368.645 -53.8593 364.169 -51.7046 360.476 -48.5791Z" fill="#5EAC24"/>
<path d="M339.181 17.138C339.081 19.4763 340.217 21.7418 342.232 22.9886C355.172 30.9728 360.023 35.631 370.291 38.8945C371.861 39.3914 371.397 41.7763 369.802 41.6966C362.842 41.4131 353.1 40.7509 340.634 39.3432C339.751 39.2421 338.991 40.0082 339.077 40.9181C340.154 51.7974 342.845 67.4768 344.49 75.0548C344.589 75.4996 344.884 75.8645 345.29 76.0462C361.386 83.2077 380.668 87.106 399.643 88.9227C401.711 89.1219 403.772 89.2924 405.827 89.4436C407.313 89.5529 407.609 91.6525 406.219 92.2068C405.053 92.6701 403.714 93.1788 402.232 93.7042C390.678 97.786 370.2 102.912 350.281 97.43C349.075 97.0915 348.058 98.4392 348.712 99.5488C370.595 136.78 369.236 134.337 369.829 134.55C387.497 140.25 400.124 135.279 418.26 130.808C419.606 130.478 420.548 132.133 419.602 133.172C403.964 150.401 389.777 151.654 388.916 152.422C388.469 152.8 388.297 153.433 388.486 154C388.485 154.005 388.49 154.005 388.49 154.005C388.864 155.06 400.029 165.219 412.787 170.66C417.418 172.635 428.94 175.455 434.215 176.693C434.661 176.804 435.131 176.667 435.436 176.38C454.724 159.115 458.048 139.105 459.92 138.032C460.646 137.602 461.699 137.89 461.964 138.872C466.023 154.068 458.556 171.794 458.687 173.068C458.748 173.844 459.526 174.595 460.524 174.285C469.202 171.297 476.934 166.24 483.836 159.883C491.202 153.798 495.155 139.219 488.796 130.901C486.741 128.209 484.084 125.905 480.891 124.304C477.235 122.469 469.212 122.735 465.983 120.02C459.716 114.79 456.348 109.561 455.128 108.111C454.995 107.728 449.937 101.932 447.925 97.832C447.925 97.832 447.926 97.8276 447.917 97.8216C442.922 87.9113 444.132 76.4596 451.418 70.4393C451.331 70.3247 361.54 -47.1831 360.474 -48.5791C356.797 -45.4703 353.895 -41.3918 352.155 -36.6631C343.637 -13.4779 339.228 14.3831 339.181 17.138Z" fill="#4E901E"/>
<path d="M350.281 97.4289C370.2 102.911 390.678 97.7849 402.231 93.703C414.405 115.731 430.269 137.594 450.919 157.371C447.425 163.363 442.498 170.058 435.436 176.379C435.131 176.666 434.661 176.803 434.215 176.692C428.94 175.454 417.418 172.635 412.787 170.659C400.029 165.218 388.864 155.059 388.49 154.004C388.49 154.004 388.485 154.004 388.486 153.999C388.296 153.432 388.469 152.799 388.916 152.421C389.777 151.653 403.964 150.399 419.602 133.171C420.548 132.132 419.606 130.476 418.26 130.807C400.124 135.278 387.497 140.249 369.829 134.549C369.236 134.337 370.537 136.68 348.712 99.5477C348.057 98.4376 349.075 97.0903 350.281 97.4289Z" fill="#5EAC24"/>
<path d="M352.156 -36.6634C353.896 -41.3926 356.798 -45.471 360.475 -48.5794C360.275 -46.8452 360.152 -41.9639 360.687 -38.6972C365.116 -11.6555 372.149 36.9133 399.643 88.9223C380.668 87.1055 361.386 83.2072 345.29 76.0457C344.883 75.864 344.589 75.4991 344.49 75.0543C342.844 67.4763 340.154 51.7968 339.077 40.9176C338.99 40.0077 339.75 39.2416 340.634 39.3427C353.099 40.7504 362.842 41.4127 369.802 41.6961C371.397 41.7758 371.861 39.3909 370.291 38.894C360.023 35.6306 355.172 30.9728 342.232 22.9882C340.217 21.7414 339.081 19.4758 339.18 17.1375C339.227 14.3831 343.637 -13.4779 352.156 -36.6634Z" fill="#5EAC24"/>
<path d="M385.611 20.3186C384.561 21.9096 384.969 24.0684 386.514 25.1356C401.377 35.3727 415.141 42.1133 427.422 45.1691C429.676 45.7244 433.231 42.8468 433.211 40.4372C433.005 9.11787 414.931 -30.4925 399.321 -57.0222C396.732 -57.0246 394.111 -56.9562 391.465 -56.8161C395.912 -49.5376 424.736 -0.968674 426.361 37.6859C415.53 34.54 403.421 28.3895 390.314 19.3605C388.764 18.2971 386.661 18.7231 385.611 20.3186Z" fill="#47821C"/>
<path d="M344.353 -10.7529C350.084 -4.89844 361.336 6.0534 375.36 16.9503C375.86 17.3388 376.435 17.5627 377.018 17.6294C380.444 18.0214 382.191 13.5187 379.47 11.4061C363.055 -1.34918 350.221 -14.5149 346.379 -18.5773C345.207 -14.346 344.534 -11.4748 344.353 -10.7529Z" fill="#47821C"/>
<path d="M358.914 116.814C360.278 119.105 361.623 121.376 362.867 123.481C383.187 121.81 431.11 116.668 452.122 104.176C451.335 103.089 449.804 101.369 448.258 98.4702C427.137 110.647 376.003 115.5 358.914 116.814Z" fill="#47821C"/>
<path d="M404.628 166.523C406.7 167.748 408.835 168.869 411.028 169.875C416.249 164.864 425.206 155.953 433.95 145.773C435.187 144.334 435.056 142.137 433.656 140.872C432.255 139.611 430.117 139.758 428.875 141.202C419.183 152.485 409.228 162.177 404.628 166.523Z" fill="#47821C"/>
<path d="M340.697 53.612C341.08 56.1781 341.489 58.7567 341.901 61.2328C352.799 64.4706 373.131 69.9906 391.418 72.1851C391.727 72.2249 392.032 72.2598 392.337 72.2947C411.689 74.5088 432.491 73.9375 446.921 65.448C447.262 65.249 447.61 64.9486 447.823 64.7072C456.326 55.0781 462.256 39.7134 465.447 19.0468C465.737 17.1498 464.476 15.3783 462.629 15.0876C460.78 14.8062 459.05 16.1049 458.756 17.9969C455.821 37.0191 450.57 51.0297 443.153 59.6645C429.669 67.3534 408.149 67.0962 387.942 64.2855C367.816 61.4844 348.989 56.1506 340.697 53.612Z" fill="#47821C"/>
</g>
<g clip-path="url(#clip2)" filter="url(#filter1_d)">
<path d="M20.4835 100.378C20.8951 99.0081 20.1182 97.5637 18.7482 97.152C17.3781 96.7403 15.9337 97.5173 15.522 98.8873L8.06807 123.695L-91.1608 93.8787C-98.0111 91.8204 -105.233 95.705 -107.291 102.555C-107.437 102.953 -107.559 103.359 -107.657 103.771C-108.795 110.501 -104.668 117.005 -98.0938 118.842L-88.6919 121.668L-84.9649 109.264L-60.1577 116.718L-63.8847 129.121L0.614115 148.502C3.35425 149.325 6.24301 147.771 7.06635 145.031L14.5203 120.224" fill="#3B97D3"/>
<path d="M23.465 90.4552L15.6905 116.329L-11.6755 65.4533L8.67379 54.5281C10.4693 67.5667 15.5601 79.9319 23.465 90.4552V90.4552Z" fill="#95A5A5"/>
<path d="M15.6904 116.329L15.2656 117.743C14.4456 120.472 10.7967 124.514 8.06794 123.695L7.86948 123.635L-20.7807 70.3717L-74.0935 99.007L-88.0848 94.803L-30.2653 63.6811L-35.1838 54.576L-40.0699 45.4536L-63.5141 1.86877L-59.3027 -12.1473L-21.1255 58.8272L-2.86571 49.0053L-33.4074 -7.77434L-19.3665 -3.5554L6.24684 44.0621L8.73095 42.7259C8.25707 46.6446 8.23786 50.605 8.67371 54.5282L-11.6756 65.4533L15.6904 116.329Z" fill="#F3D55B"/>
<path d="M10.3395 35.1221C9.59086 37.6159 9.05034 40.1675 8.72349 42.7506L6.23938 44.0868L-19.3666 -3.55548L45.8268 16.0335C30.7561 11.5051 14.8679 20.0514 10.3395 35.1221Z" fill="#F29C1F"/>
<path d="M7.86945 123.635L-74.0935 99.007L-20.7808 70.3717L7.86945 123.635Z" fill="#95A5A5"/>
<path d="M45.8267 16.0334C30.756 11.5051 14.8678 20.0513 10.3394 35.122C9.59077 37.6158 9.05025 40.1674 8.7234 42.7505C8.24952 46.6693 8.23031 50.6297 8.66615 54.5529C10.4679 67.5834 15.5611 79.9397 23.4648 90.4551C23.4648 90.4551 56.4103 79.8257 64.9152 51.5207C67.0898 44.2835 66.3004 36.4789 62.7206 29.8237C59.1408 23.1686 53.0639 18.2081 45.8267 16.0334ZM33.9003 55.725C25.68 53.255 21.0184 44.5887 23.4884 36.3683C25.9584 28.1479 34.6247 23.4863 42.8451 25.9563C51.0655 28.4264 55.727 37.0926 53.257 45.313C52.0709 49.2606 49.3651 52.5753 45.7351 54.5279C42.105 56.4805 37.8479 56.9111 33.9003 55.725Z" fill="#E64C3C"/>
<path d="M33.9003 55.7249C42.1207 58.1949 50.7869 53.5333 53.257 45.313C55.727 37.0926 51.0654 28.4263 42.845 25.9563C34.6246 23.4862 25.9583 28.1478 23.4883 36.3682C21.0183 44.5886 25.6799 53.2549 33.9003 55.7249Z" fill="#F5EFCA"/>
<path d="M33.155 58.2057C23.5645 55.324 18.1259 45.2134 21.0076 35.6229C23.8893 26.0325 34 20.594 43.5905 23.4757C53.181 26.3574 58.6195 36.468 55.7378 46.0585C54.354 50.664 51.1973 54.5311 46.9622 56.8091C42.7271 59.0872 37.7605 59.5896 33.155 58.2057ZM42.0997 28.4371C35.2494 26.3787 28.0274 30.2634 25.9691 37.1137C23.9107 43.964 27.7954 51.1859 34.6457 53.2443C41.4961 55.3026 48.718 51.418 50.7763 44.5677C51.7648 41.278 51.406 37.7305 49.7788 34.7054C48.1516 31.6803 45.3893 29.4255 42.0997 28.4371Z" fill="#C03A2B"/>
</g>
</g>
</g>
<defs>
<filter id="filter0_dd" x="0" y="0" width="456" height="636" filterUnits="userSpaceOnUse" color-interpolation-filters="sRGB">
<feFlood flood-opacity="0" result="BackgroundImageFix"/>
<feColorMatrix in="SourceAlpha" type="matrix" values="0 0 0 0 0 0 0 0 0 0 0 0 0 0 0 0 0 0 127 0" result="hardAlpha"/>
<feOffset dx="4" dy="4"/>
<feGaussianBlur stdDeviation="10"/>
<feColorMatrix type="matrix" values="0 0 0 0 0 0 0 0 0 0 0 0 0 0 0 0 0 0 0.25 0"/>
<feBlend mode="normal" in2="BackgroundImageFix" result="effect1_dropShadow"/>
<feColorMatrix in="SourceAlpha" type="matrix" values="0 0 0 0 0 0 0 0 0 0 0 0 0 0 0 0 0 0 127 0" result="hardAlpha"/>
<feOffset dy="4"/>
<feGaussianBlur stdDeviation="2"/>
<feColorMatrix type="matrix" values="0 0 0 0 0 0 0 0 0 0 0 0 0 0 0 0 0 0 0.25 0"/>
<feBlend mode="normal" in2="effect1_dropShadow" result="effect2_dropShadow"/>
<feBlend mode="normal" in="SourceGraphic" in2="effect2_dropShadow" result="shape"/>
</filter>
<filter id="filter1_d" x="-118" y="-19" width="195.115" height="195.115" filterUnits="userSpaceOnUse" color-interpolation-filters="sRGB">
<feFlood flood-opacity="0" result="BackgroundImageFix"/>
<feColorMatrix in="SourceAlpha" type="matrix" values="0 0 0 0 0 0 0 0 0 0 0 0 0 0 0 0 0 0 127 0" result="hardAlpha"/>
<feOffset dy="4"/>
<feGaussianBlur stdDeviation="2"/>
<feColorMatrix type="matrix" values="0 0 0 0 0 0 0 0 0 0 0 0 0 0 0 0 0 0 0.25 0"/>
<feBlend mode="normal" in2="BackgroundImageFix" result="effect1_dropShadow"/>
<feBlend mode="normal" in="SourceGraphic" in2="effect1_dropShadow" result="shape"/>
</filter>
<clipPath id="clip0">
<rect x="16" y="16" width="416" height="596" rx="10" fill="white"/>
</clipPath>
<clipPath id="clip1">
<rect width="223.397" height="229.236" fill="white" transform="matrix(-0.993519 -0.11367 -0.11367 0.993519 569.007 -38.6064)"/>
</clipPath>
<clipPath id="clip2">
<rect width="150.237" height="150.237" fill="white" transform="translate(-70.7671 -19) rotate(16.7242)"/>
</clipPath>
</defs>
</svg>
